<svg xmlns="http://www.w3.org/2000/svg" viewBox="0 0 47.089 47.089" xml:space="preserve"><path fill="#fff" d="M42.527 16.856c1.885-.603 3.431-1.297 4.563-2.055v21.678c0 3.516-10.541 6.366-23.545 6.366S0 39.995 0 36.479V14.801c1.132.758 2.678 1.452 4.563 2.055v6.891a1.5 1.5 0 1 0 3 0v-6.075c4.02.934 9.02 1.523 14.481 1.615V29.81q.001.163.035.317.727-.013 1.465-.014.738 0 1.465.013.034-.153.035-.317V19.287c5.462-.092 10.462-.681 14.482-1.615v6.075a1.5 1.5 0 1 0 3 0v-6.891zm-18.982.12c13.003 0 23.545-2.85 23.545-6.366S36.549 4.244 23.545 4.244 0 7.094 0 10.61s10.541 6.366 23.545 6.366"/></svg>